# xmcd
# Track frame offsets:
# 187
# 12027
# 23405
# 36465
# 47742
# 59780
# 72672
# 85052
# 95372
# 107045
#
# Disc length: 1554 seconds
# Revision: 0
# Processed by: cddbd v1.4PL0 Copyright (c) Steve Scherf et al.
# Submitted via: VisiTrax 2.9.5.180 - For more info visit www.synapsa.com
#
DISCID=8006100a
DTITLE=LORETTA lYNN - Peace in the valley
DYEAR=1990
DGENRE=
TTITLE0=In the garden
TTITLE1=Mama why
TTITLE2=Ten thousand angels
TTITLE3=I believe
TTITLE4=I'd rather
TTITLE5=Peace in the valley
TTITLE6=Where I learned to pray
TTITLE7=If I could hear my mother pray
TTITLE8=The old rugged cross
TTITLE9=Who says God is dead
EXTD=
EXTT0=
EXTT1=
EXTT2=
EXTT3=
EXTT4=
EXTT5=
EXTT6=
EXTT7=
EXTT8=
EXTT9=
PLAYORDER=
